<?xml version="1.0" encoding="iso-8859-1"?>
<!-- Generator: Adobe Illustrator 19.0.0, SVG Export Plug-In . SVG Version: 6.00 Build 0)  -->
<svg version="1.1" id="Layer_1" xmlns="http://www.w3.org/2000/svg" xmlns:xlink="http://www.w3.org/1999/xlink" x="0px" y="0px"
	 viewBox="0 0 512 512" style="enable-background:new 0 0 512 512;" xml:space="preserve">
<path style="fill:#92CCFF;" d="M510.347,285.075C511.426,275.531,512,265.834,512,256C512,114.616,397.385,0,256,0
	C114.616,0,0,114.616,0,256c0,129.414,96.035,236.38,220.722,253.569L510.347,285.075z"/>
<path style="fill:#5CB2FE;" d="M510.347,285.075L381.119,155.847L72.616,361.463l148.106,148.106
	C232.257,511.16,244.029,512,256,512C387.553,512,495.909,412.767,510.347,285.075z"/>
<path style="fill:#44702A;" d="M446.552,249.738c-7.309-22.497-26.415-37.85-48.242-41.476c3.297-21.879-5.403-44.793-24.539-58.697
	c-19.137-13.904-43.618-15.096-63.408-5.2c-10.193-19.639-30.7-33.063-54.354-33.063l-33.391,215.575h184.629
	C439.403,316.429,457,281.893,446.552,249.738z"/>
<g>
	<path style="fill:#63842C;" d="M201.656,144.364c-19.79-9.896-44.27-8.704-63.408,5.2c-19.137,13.904-27.836,36.818-24.539,58.697
		c-21.827,3.626-40.932,18.98-48.242,41.476c-10.448,32.155,7.149,66.69,39.304,77.138h151.238V111.301
		C232.356,111.301,211.849,124.727,201.656,144.364z"/>
	<path style="fill:#63842C;" d="M425.381,256.617c-4.511-13.883-16.282-23.997-30.719-26.396l-21.631-3.594l3.267-21.682
		c2.18-14.472-3.802-28.791-15.612-37.372c-6.695-4.864-14.586-7.435-22.822-7.435c-6.067,0-12.133,1.43-17.544,4.136l-19.613,9.809
		l-10.102-19.463c-6.742-12.989-19.998-21.058-34.597-21.058L108.703,304.616h294.613
		C421.859,296.904,431.692,276.041,425.381,256.617z"/>
</g>
<circle style="fill:#44702A;" cx="116.87" cy="267.13" r="61.217"/>
<circle style="fill:#365F2C;" cx="392.893" cy="267.13" r="61.217"/>
<path style="fill:#274E2D;" d="M300.886,205.913c-18.34,0-34.784,8.075-46.004,20.852L232.62,328.348h68.265
	c33.81,0,61.217-27.409,61.217-61.217S334.694,205.913,300.886,205.913z"/>
<path style="fill:#365F2C;" d="M208.877,205.913c-33.81,0-61.217,27.409-61.217,61.217s27.408,61.217,61.217,61.217
	c18.34,0,34.785-8.075,46.004-20.853v-80.73C243.662,213.988,227.218,205.913,208.877,205.913z"/>
<path style="fill:#C9E5FF;" d="M256,267.129l-44.522,63.443L256,400.695h89.043c73.461,0,133.565-60.104,133.565-133.565H256z"/>
<path style="fill:#FFFFFF;" d="M256,267.129v133.565h-89.043c-73.461,0-133.565-60.104-133.565-133.565H256z"/>
<path style="fill:#44702A;" d="M256,289.391h198.111c-10.34,50.744-55.318,89.043-109.067,89.043H256l-22.261-44.522L256,289.391z"
	/>
<path style="fill:#63842C;" d="M256,289.391v89.043h-89.043c-53.749,0-98.727-38.3-109.067-89.043H256z"/>
<g>
	<rect x="155.837" y="172.522" style="fill:#44702A;" width="22.261" height="22.261"/>
	<rect x="244.881" y="155.826" style="fill:#44702A;" width="22.261" height="22.261"/>
</g>
<g>
</g>
<g>
</g>
<g>
</g>
<g>
</g>
<g>
</g>
<g>
</g>
<g>
</g>
<g>
</g>
<g>
</g>
<g>
</g>
<g>
</g>
<g>
</g>
<g>
</g>
<g>
</g>
<g>
</g>
</svg>
